<?xml version="1.0" encoding="UTF-8" standalone="no"?>
<svg
   preserveAspectRatio="xMidYMid meet"
   data-bbox="0 0.119 1905 924.697"
   viewBox="0 0.119 1905 924.697"
   height="1233.333"
   width="2540"
   data-type="shape"
   role="presentation"
   aria-hidden="true"
   aria-label=""
   version="1.1"
   id="svg13"
   sodipodi:docname="CinéTransat.svg"
   inkscape:export-filename="CinéTransat.jpg"
   inkscape:export-xdpi="38.702362"
   inkscape:export-ydpi="38.702362"
   inkscape:version="1.4.3 (0d15f75, 2025-12-25)"
   xmlns:inkscape="http://www.inkscape.org/namespaces/inkscape"
   xmlns:sodipodi="http://sodipodi.sourceforge.net/DTD/sodipodi-0.dtd"
   xmlns="http://www.w3.org/2000/svg"
   xmlns:svg="http://www.w3.org/2000/svg">
  <defs
     id="defs13" />
  <sodipodi:namedview
     id="namedview13"
     pagecolor="#ffffff"
     bordercolor="#000000"
     borderopacity="0.25"
     inkscape:showpageshadow="2"
     inkscape:pageopacity="0.0"
     inkscape:pagecheckerboard="0"
     inkscape:deskcolor="#d1d1d1"
     inkscape:zoom="0.18"
     inkscape:cx="1269.4444"
     inkscape:cy="613.88889"
     inkscape:window-width="1306"
     inkscape:window-height="980"
     inkscape:window-x="0"
     inkscape:window-y="33"
     inkscape:window-maximized="0"
     inkscape:current-layer="svg13" />
  <g
     id="g13"
     fill="#c86d90">
    <path
       d="M1324.6 6.6c-19.2 3.5-35 6.4-35.1 6.6-.5.7-21.7 90-21.3 90.3.1.2 10.8-1.6 23.6-3.9l23.3-4.1 24-47.4C1352.2 22 1363 .5 1363 .3c0-.6-4.2 0-38.4 6.3"
       id="path1" />
    <path
       d="M761.7 99.6c-18.6 4.5-31.9 18.5-34.9 36.7-3.1 18.9 7.2 38 25 46.5 13.6 6.5 31.6 5.4 44.3-2.6 13.4-8.6 20.9-22 20.9-37.7 0-21.6-15-39.5-36.4-43.4-7.6-1.4-11.6-1.3-18.9.5"
       id="path2" />
    <path
       d="M1301 133.1c-58.3 7.1-102.7 48.4-115.1 107.2-3 13.7-3.2 37.9-.5 51.7 10.7 55 47.4 92.1 101.6 102.6 15 2.9 39.8 2.5 56.1-.9 20.5-4.3 40.8-12.1 56.4-21.7 8-4.9 21.6-15.3 25.9-19.9l3-3.1-2.5-2.8c-1.4-1.5-9.7-10.7-18.4-20.5l-15.7-17.8-3.2 2.6c-18.8 15.3-39.7 25.3-59.9 28.5-11.7 1.9-28.4.9-37.5-2.3-14.4-5-25.9-14.3-33.2-26.7-3.7-6.2-6.8-14.5-5.9-15.5.3-.2 39.8-7.5 87.9-16.1s87.7-15.8 88-16.1.4-5.5.4-11.6c-.7-57.9-38.9-106-92.3-116.1-10.4-2-26-2.7-35.1-1.5m26.7 58.3c11.9 3.7 23.8 15 28.8 27.2 1.3 3.2 2.3 5.9 2.2 6.1-.6.6-107.1 19.2-107.5 18.8-1-.9 1.9-10.8 5.3-18 8.4-18.3 23.5-30.7 42.6-35 7.8-1.8 21.3-1.3 28.6.9"
       id="path3" />
    <path
       d="M537.3 142.1c-41.3 2.6-81 17.1-113.1 41.3-52.5 39.7-83.2 99.9-83.2 163.4 0 99 72.1 175.5 171.5 182.1 70.6 4.6 140.9-27 178.8-80.4l3.8-5.4-24.8-18.7c-13.7-10.2-25.3-19-25.9-19.5-.7-.6-3.3 2-7.4 7.2-15.9 20.1-38.4 36.4-62.3 44.8-32.9 11.6-68.4 10.2-97.3-3.9-33.3-16.2-55.1-46.2-62.6-85.8-1.9-10.2-1.6-37.8.5-48.5 16.5-82.1 98.1-131.3 175.1-105.5 11.1 3.7 24.6 10.4 34.5 17 7.1 4.8 7.4 4.9 9.2 3.1.9-1 10.3-12.3 20.8-25.2 22.2-27.2 21.6-23.3 5.2-34.3-35.9-24-77.2-34.6-122.8-31.7"
       id="path4" />
    <path
       d="M1025.5 180.1c-33.4 3.2-62.5 21.3-72.2 44.9l-2.3 5.5v-16.3c0-8.9-.3-16.2-.7-16.2-.5 0-14.8 2.3-31.9 5.2l-31.2 5.3-.6 30c-.3 16.5-.8 74.5-1.2 128.9l-.6 98.9 2.9-.6c1.5-.2 17-2.9 34.4-5.8l31.6-5.4.6-22.4c.4-12.3.7-49.4.7-82.4v-60l4.1-5.3c5.5-7.1 18.2-19.2 25.5-24.1 22-14.9 45.2-18.7 63.2-10.3 11.4 5.3 19.9 16.6 24.5 32.7 2.2 7.8 2.2 8.2 2.1 79.5-.1 39.5-.1 71.8 0 71.8.8 0 65.6-11.1 67.4-11.5l2.3-.6-.4-68.2c-.4-64.6-.5-68.8-2.5-79.5-7.6-39.8-27.1-67.6-58.7-83.4-17.1-8.6-38.1-12.6-57-10.7"
       id="path5" />
    <path
       d="M773.5 227.7c-17.6 3-32.1 5.6-32.2 5.7-.5.4-1.9 256.2-1.4 256.8.6.6 67.7-10.5 68.5-11.3.2-.2.7-58.1 1.1-128.7l.8-128.2-2.4.1c-1.3 0-16.8 2.6-34.4 5.6"
       id="path6" />
    <path
       d="m1778.5 317.9-33 5.7-.6 6.5c-.4 3.5-.7 20-.8 36.5l-.1 30.1-3.2.7c-1.8.4-15.4 2.7-30.3 5.1-14.8 2.5-29.3 5-32.1 5.6l-5.1 1-.5 29.2c-.3 16.1-.2 29.5.1 29.9.5.5 38.1-5.5 66.9-10.7l3.2-.6v44.3c0 47.1.6 56.9 4.5 71.5 12.1 45.7 53.2 72.9 103.2 68.2 21.7-2 54.3-11.1 54.3-15.2 0-1.4-19.5-53.5-20.3-54.3-.3-.3-3.4.3-6.9 1.5-14 4.6-32.6 6.7-41.3 4.5-10.8-2.6-17.6-10.3-22.2-24.9-1.6-5.5-1.8-10.2-1.8-56.2 0-27.6.3-50.5.6-50.8.4-.3 19.8-3.8 43.2-7.8l42.5-7.2.6-5c.3-2.7.6-16.3.6-30v-25.1l-42.7 7.3c-23.6 4-43.1 7.3-43.4 7.3s-.4-16.4-.1-36.5c.4-30.7.3-36.5-.9-36.4-.8.1-16.2 2.7-34.4 5.8"
       id="path7" />
    <path
       d="M1595 422.1c-15.7 2.7-29.1 5.1-29.7 5.4-1 .3-1.3 5.2-1.3 19.7l-.1 19.3-2-3.8c-5.1-9.8-20.4-20.2-35.9-24.7-10.5-3-32.8-3.8-46.2-1.6-45.2 7.4-83.7 36.5-102.3 77.2-4.7 10.2-10 27.4-12.1 38.9-2.4 13.7-2.4 38.7 0 51 9.8 49.7 40.4 84.2 85.4 96.2 8.5 2.3 11.8 2.6 26.2 2.7 12.5.1 18.6-.3 25-1.7 10.6-2.3 24-7.3 31.7-11.8 8.6-5 21.1-18 25.6-26.4l3.6-7 .1 14.7c0 8.2.1 14.8.3 14.8.1-.1 14.2-2.4 31.2-5.3l31-5.3.6-42c.4-23 .9-80.9 1.2-128.7l.6-86.7-2.2.1c-1.2 0-15 2.3-30.7 5m-69.7 78.3c9.1 1.8 21 6.3 27.7 10.6l5 3.2v82.9l-3.1 4.6c-10.2 14.8-29.1 28.2-46.4 32.8-9.3 2.5-24.7 3-32.9 1.1-20.6-4.9-35.8-20.8-41.2-43.1-2.3-9.2-2.3-27.6-.1-36.7 6.8-27.7 28.8-49.4 56.2-55.3 8.1-1.8 25.6-1.8 34.8-.1"
       id="path8" />
    <path
       d="M1239 477.6c-50.3 6.1-87.4 30.1-100.2 64.7-2.4 6.5-3.1 10.4-3.5 18.8-1.6 31 14.8 54.8 46.2 67 4.1 1.6 16.6 5.4 27.8 8.3 26.4 7.1 35.7 10.6 41.2 16 12 11.4 2.5 27.2-20.5 34-19.3 5.8-43.8 3.2-68.4-7.1-6.1-2.6-11.1-4.2-11.3-3.7s-6.2 12.8-13.3 27.3c-10 20.2-12.8 26.7-11.8 27.3 3.1 2.2 16.2 7.8 24.8 10.7 17.9 5.9 29.1 7.6 52 7.6 23.4 0 35-1.8 53.1-8.1 31.1-10.8 53.6-29.1 63.9-51.8 11-24.2 6.5-54.5-10.7-73.6-14-15.5-32.9-24.4-69.3-32.6-26.7-6-32.8-9.3-34.5-18.6-.9-4.7 2-11.4 6.6-15.2 15-12.7 45.7-16.1 73.3-8.1 4.4 1.3 8.2 2.2 8.4 2.1.1-.2 4.8-12.4 10.4-27.1 7.8-20.7 9.8-26.9 8.7-27.5-2.3-1.5-22.2-7-30.9-8.6-8.3-1.5-34.9-2.6-42-1.8"
       id="path9" />
    <path
       d="M949.4 526.5c-21.4 3.9-38.5 12.5-51.9 26-5.7 5.8-11.7 15.3-13.5 21.4-.5 1.5-.9-4.1-.9-14.1L883 543l-2.7.6c-1.6.3-15.8 2.7-31.6 5.3-15.8 2.7-29 5.1-29.2 5.3-.7.6-2.6 256-2 256.6 1 1 67.8-10.7 68.7-12 .4-.7.8-30.1.8-65.4 0-35.2.3-72.2.7-82.2l.6-18.1 6.7-7.9c12-14 29.1-25.9 45-31.2 4.1-1.3 10.3-2.4 16.6-2.7 8.6-.5 11.2-.2 17.2 1.6 15.6 4.7 26.4 17.6 30.9 37.1 1.6 6.8 1.8 14 1.8 78.3 0 59.9.2 70.7 1.4 70.7 3 0 66.6-11.2 67.3-11.8 1.3-1.2 1.1-123.8-.2-134.7-5.3-46-23.9-76.8-57.2-95-19.4-10.6-46.7-15-68.4-11"
       id="path10" />
    <path
       d="m709.5 572.4-30 5.2-.3 19.4-.2 19.4-3.5-5.1c-16.3-24.3-56.1-32.7-98.1-20.7-4.9 1.4-14.3 5.1-20.9 8.3-40.3 19.7-65.5 53.2-75.7 100.4-3.2 14.8-3.2 42.8 0 57.4 8.6 39.8 29.9 68.5 62.7 85.1 17.2 8.6 32.4 11.7 53.9 10.9 18.5-.6 30.2-3.4 45.5-10.8 8.9-4.4 11.6-6.3 19.1-13.7 6.5-6.6 9.6-10.5 12.3-16.1l3.7-7.4v30.4l4.3-.6c2.3-.4 16.4-2.8 31.2-5.3l27-4.7.7-61.5c.3-33.8.8-91.8 1-128.8.3-60 .2-67.2-1.2-67.1-.8.1-15 2.5-31.5 5.3m-68.9 78.5c10.3 2.1 19 5.4 27 10.2l5.6 3.4-.7 42.5-.7 42.5-5.5 6.8c-11.2 13.9-28.2 24.8-44.9 28.8-11.8 2.8-28.9 2.3-37.6-1-17.2-6.7-29.7-21.4-34.5-40.9-2.3-9.4-2.3-29.5.1-38.1 6.9-25.3 25.1-44.8 49.2-52.6 11.9-3.9 28-4.5 42-1.6"
       id="path11" />
    <path
       d="M107.5 601.6c-17.1 2.9-32 5.6-33.1 5.9-2.2.5-2.2.7-2.5 36.4-.2 19.8-.7 36.2-1 36.5-.3.4-15.2 3.1-33 6.1s-33.6 5.8-35.2 6.1l-2.7.6V753l2.3-.5C4.5 752 69.7 741 70.4 741c.2 0 .3 21 .2 46.7-.1 49 .2 54.4 4.6 70.3 7 25.8 25.1 47.6 48.4 58.1 13.7 6.2 22.6 8.1 39.9 8.6s25.9-.5 44.9-5.3c11.5-2.9 24.1-7.7 24.1-9.2 0-.5-4.5-13.2-10-28.1-9-24.4-10.2-27.1-12-26.7-1.1.2-6 1.7-11 3.2-7.8 2.3-10.8 2.7-23 2.8-13.3.1-14.3 0-19-2.5-10.2-5.3-15.9-16.8-17.5-35.2-.4-5.4-.6-28.9-.3-52.2l.6-42.4 6.6-1.1c3.6-.6 23-3.9 43.1-7.3l36.5-6.2.5-29.8c.5-28.9.4-29.7-1.4-29.7-1.7 0-74.3 12.1-81.8 13.6l-2.8.6v-36.6c0-28.7-.3-36.6-1.2-36.5-.7.1-15.2 2.6-32.3 5.5"
       id="path12" />
    <path
       d="M423.3 616.1c-30.3 2.8-57.2 20.9-65 43.9l-2.2 6.5-.1-16.8c0-12.7-.3-16.7-1.2-16.7-.7 0-15.1 2.3-32 5.2l-30.8 5.2-.1 37c-.1 20.4-.4 78-.8 128.1s-.5 91.3-.2 91.7c.5.5 58.7-8.8 66.7-10.7l2.1-.5.6-81.6.7-81.6 4.6-7.1c8.2-12.7 23.9-26.5 36.2-31.9 7.2-3.2 13.8-4.7 23.5-5.5 7.8-.5 8.8-.8 9.2-2.7.9-4.2 8.7-61.7 8.3-62-1-.9-12.3-1.1-19.5-.5"
       id="path13" />
  </g>
</svg>
